# xmcd
#
# Track frame offsets: 
#        150
#        14195
#        28142
#        41590
#        70272
#        90085
#        116610
#        119467
#        145700
#        165770
#        182957
#        211807
#        230990
#        253737
#        268402
#        271627
#        296897
#
# Disc length: 4348 seconds
#
# Revision: 38
# Processed by: cddbd v1.5.2PL0 Copyright (c) Steve Scherf et al.
# Submitted via: ExactAudioCopy v0.99pb4
#
DISCID=fe10fa11
DTITLE=U2 - Rattle and Hum
DYEAR=1988
DGENRE=Rock
TTITLE0=Helter Skelter
TTITLE1=Van Diemen's Land
TTITLE2=Desire
TTITLE3=Hawkmoon 269
TTITLE4=All Along The Watchtower
TTITLE5=I Still Haven't Found What I'm Looking For
TTITLE6=Freedom For My People
TTITLE7=Silver And Gold
TTITLE8=Pride (In The Name Of Love)
TTITLE9=Angel Of Harlem
TTITLE10=Love Rescue Me
TTITLE11=When Love Comes To Town
TTITLE12=Heartland
TTITLE13=God Part II
TTITLE14=The Star Spangled Banner
TTITLE15=Bullet The Blue Sky
TTITLE16=All I Want Is You
EXTD=Produced by: Jimmy Iovine [Island]
EXTT0=Lennon - McCartney
EXTT1=The Edge
EXTT2=Bono
EXTT3=Bono
EXTT4=Bob Dylan
EXTT5=Bono
EXTT6=Magee - Robinson - Mabins
EXTT7=Bono
EXTT8=Bono
EXTT9=Bono
EXTT10=Bono - Dylan
EXTT11=Bono
EXTT12=Bono
EXTT13=Bono
EXTT14=Jimi Hendrix
EXTT15=Bono
EXTT16=Bono
PLAYORDER=
